<?xml version="1.0" encoding="UTF-8"?><!DOCTYPE svg PUBLIC "-//W3C//DTD SVG 1.0//EN" "http://www.w3.org/TR/2001/REC-SVG-20010904/DTD/svg10.dtd" []><svg xmlns="http://www.w3.org/2000/svg" xmlns:xlink="http://www.w3.org/1999/xlink" height="484.0" preserveAspectRatio="xMidYMid meet" version="1.0" viewBox="109.5 16.0 291.2 484.0" width="291.2" zoomAndPan="magnify"><g id="change1_1"><path d="M314.80367,372.0065c.12446,.04984,.24648,.09969,.37352,.14953,1.29713,.42306,6.13706,1.54361,9.65509,1.2947,3.82423-.29875,6.17201-2.19096,5.72874-5.5274-.22657-1.71776-1.51124-2.96261-3.78928-3.1866-2.24825-.22429-5.98783,.72181-7.06584,.9461-1.50881,.29875-2.99513,.64735-4.46656,1.07041-1.36688-.79657-2.547-1.94205-3.65981-3.21152-1.77277-2.01681-3.35619-4.40684-5.02426-6.5978-4.01099-5.27818-8.54973-9.36135-15.86691-7.71805-2.39763,.54766-4.48905,1.71776-6.61269,2.83801-.51287,.24921-1.02588,.52305-1.55121,.77196-.14193-4.38192-.67713-9.06259-.71695-13.29499-.02994-3.33644,.20165-6.37381,1.48875-8.56477,1.51383-2.5894,4.10566-3.60996,6.95141-4.20747,3.49052-.72211,7.3769-.74704,10.8077-1.19501,5.81111-.77196,10.36231-2.73893,11.57222-8.5897,.3685-1.7676-.3834-3.31121-2.46981-4.25731-1.13028-.49813-2.87053-.8218-4.82002-.9461-3.89398-.27383-8.714,.14922-9.85431,.27383-.74187,.07476-1.49377,.17415-2.2557,.27383,.88137-1.49377,1.43906-3.23675,1.73782-5.15357,.68215-4.357,.01246-9.56072-.05471-12.77224-.42579-20.78935-4.63341-41.20489-5.80108-61.86963-.80417-14.16633-.6548-30.10056,3.94625-43.61953,4.71304-13.84295,14.36311-24.59838,26.28636-32.88933,18.2346-12.67256,41.77732-19.59404,61.67269-22.65634,1.35685-.19907,2.29049-1.49377,2.0814-2.83831-.2091-1.36916-1.48131-2.29034-2.84074-2.09127-20.57494,3.16199-44.89706,10.38222-63.75667,23.50275-12.80446,8.88845-23.09702,20.51552-28.15607,35.37904-4.8027,14.09156-5.04173,30.72298-4.20519,45.51204,1.16523,20.58968,5.37042,40.93075,5.79606,61.66996,.0623,2.98784,.74947,7.84266,.11199,11.90091-.31608,2.01681-.89869,3.8841-2.48713,4.8302-4.17024,2.46479-8.30568,1.84236-12.43611,.72181-4.95709-1.36916-9.9315-3.46074-14.95576-3.63488-2.28305-.09969-6.17946,.79657-10.0011,2.31557-3.80189,1.49377-7.51397,3.60996-9.55312,5.72616-1.60835,1.66822-2.28305,3.46074-2.08641,5.05419,.13692,1.12025,.65981,2.2408,1.79009,3.26137,1.10308,.99595,2.96277,1.96697,5.85335,2.71401,2.56189,.67227,5.43014,.52274,8.32817-.09969,3.8341-.8215,7.73051-2.41495,10.86256-3.4109,9.24176-2.938,20.97839-5.85077,30.64594-6.87163,1.1128-.12461,6.06989-.57259,9.71982-.22399,.53779,.07476,1.17511,.19907,1.67065,.32367-.73959,1.66791-2.22591,2.46479-4.016,2.96261-1.92199,.52305-4.15535,.72211-6.4583,.89626-3.2565,.27383-6.63503,.52305-9.62029,1.39439-3.44326,1.02087-6.38612,2.81339-8.30067,6.09968-1.42417,2.41495-2.03414,5.57693-2.15115,9.13736-.15439,4.68067,.52533,10.08316,.69719,15.13735,.01489,.3486,.02492,.72211,.03237,1.07071-4.52628-.04984-9.63032-1.12055-14.62707-1.54361-6.21441-.52305-12.25193-.02492-17.14915,3.75949-7.10824,5.45233-12.09253,10.10808-19.51942,13.12084-3.61756-.62243-8.53727-1.41931-11.78374-1.1704-4.19516,.29875-6.17702,2.41525-5.60444,5.27818,.3486,1.71806,1.71791,2.96292,3.89641,3.38597,2.69896,.52305,7.03104-.34829,8.21116-.62243,2.15859-.49782,4.12541-1.09533,5.95532-1.79252,1.89464,.32367,3.35118,.57259,3.88653,.57259,13.02115-.24891,27.05816-1.59345,39.92249-3.11214,3.45831-.42306,5.92796-1.66791,7.70817-3.46074,2.43987-2.41495,3.60009-5.95015,3.9537-10.05824,1.38177-.42336,2.67647-1.02087,3.95111-1.69314,1.74283-.92118,3.4308-1.94205,5.39777-2.39003,5.10388-1.14517,8.01681,2.19096,10.8153,5.87569,1.73523,2.29065,3.39099,4.75544,5.23578,6.87163,.51287,.57259,1.04321,1.14517,1.59345,1.66822-5.3031,1.69284-10.55636,3.51028-16.19803,4.23239-13.56396,1.74268-27.38184,3.75949-41.06037,4.25731-3.16943,.12461-6.65752-.54766-9.96888-.57259-4.04578-.02492-7.83506,.8218-10.84509,4.03332-5.09644,5.42771-4.68569,11.02957-1.62081,15.95915,4.06812,6.52273,13.41944,11.70153,19.65376,12.92147,8.44761,1.66852,17.65457-1.99189,25.70131-4.15763,1.45897-.37382,3.51544-1.34454,5.59183-1.94205,.74202-.22429,1.4889-.44798,2.17607-.4729-.20667,.29845-.43567,.59751-.6548,.87104-2.35781,2.73893-6.04254,5.77631-6.3612,6.12521-5.03413,5.40248-10.29241,14.19125-9.70994,22.00868,.73944,9.88409,6.84671,23.0797,8.82113,34.80615,1.05065,6.22428,.9461,12.02551-2.48971,16.40743-2.29551,2.91277-6.03753,5.12896-11.68421,6.54766-21.09039,5.27849-44.1327-4.0081-62.08602-14.0168-44.20488-24.59869-84.10747-59.0061-82.09825-113.45643,.66224-17.97566,14.81368-31.34541,26.9486-42.79803,20.43058-19.27036,47.42902-38.88932,62.28767-62.79051,9.23188-14.86382,12.77726-31.74385,15.08265-49.04754,2.24582-16.83049,3.32124-34.08404,7.67824-50.14287,4.14046-15.26196,13.27523-26.142,23.09717-38.06752,18.66784-22.68126,42.64623-40.05971,61.5531-62.44222,6.38369-7.5436,12.66268-15.75978,18.38914-23.85135,2.07638-2.91307,3.35102-6.27413,4.91469-9.48596,.5153,1.09563,.93851,2.29065,1.32692,3.51058,.94367,2.96292,1.61594,6.07506,2.40006,8.41524,3.33628,9.98378,6.4235,21.83484,12.34402,30.6236,4.61108,6.82179,11.21374,11.10403,17.73678,15.33642,5.92553,3.85918,11.79134,7.66851,15.52333,13.94264,6.00774,10.10808,3.87149,22.08375,3.42594,33.18778-.46059,11.4277,1.29455,24.69807,.86389,37.42047-.40589,12.07505-2.78345,23.70212-11.51994,32.59027-6.07232,6.17444-13.25776,8.81368-20.82886,10.53144-8.07425,1.84236-16.58401,2.63924-24.81508,5.02927-1.94934,.57259-11.18624,1.44392-15.14495,2.34019-1.20504,.27414-2.06392,.62243-2.47224,.89656-.44813,.27383-.72455,.62243-.90371,.89626-.40087,.67227-.47062,1.34424-.2714,2.04143,.12446,.42336,.42564,1.12055,1.33938,1.56853,.28644,.14953,.99351,.37352,1.88719,.54766,1.45897,.24921,3.56529,.4732,3.89398,.49813,5.99027,.04984,11.57222-1.84236,17.48529-2.21588,1.02573-.07476,1.84236,.67227,2.62663,1.44392,1.26476,1.24486,2.33791,2.78847,3.2565,3.83426,.4805,.57259,1.1204,1.81744,1.65317,2.41495,.5004,.52274,1.03576,.8218,1.47644,.9461,.58003,.17445,1.13529,.14953,1.66062,0,.55769-.19907,1.17024-.57259,1.62582-1.39408,.86632-1.61837,.88638-3.58535,.53034-5.57693-.18433-1.04579-.45816-2.09158-.59508-3.0626-.02994-.19907-.07218-.39814-.09209-.57259,.5004-.04984,1.29455-.07476,1.94691,0,5.03672,.44828,12.88925,2.86323,14.66445,3.31151,1.46383,.34829,2.23077-.32367,2.59928-.69719,.5352-.54766,1.12785-1.59345,.42564-3.01276-.10212-.19907-.29617-.49782-.56271-.84642,1.34196-.32367,2.63164-.32367,3.64507-.49782,1.61321-.29875,2.82327-.92118,3.60753-1.99189,.43324-.59751,.77925-1.36916,.8914-2.46479,1.00081-.09969,2.16847-.22399,2.4423-.29875,1.61093-.44798,1.86485-1.71776,1.91713-2.19096,.12947-1.19501,.87392-1.96697,1.85726-2.5894,.93121-.57259,2.05906-.99564,3.27398-1.34424,3.59765-1.04579,7.8726-1.46915,10.94477-2.26572,1.3295-.3486,2.12379-1.71776,1.77277-3.0623-.35103-1.31962-1.71548-2.1162-3.04498-1.7676-3.79429,1.02056-9.36879,1.46885-13.38464,3.11214-2.83086,1.17009-4.9621,2.88785-5.89818,5.37756-.77181,.07476-1.68797,.17445-2.22074,.27383-.67485,.12461-1.17268,.32367-1.44666,.49813-1.18012,.72181-1.36673,1.7676-1.22981,2.61402,.05972,.39844,.05972,.8218,.05227,1.07071-.3138,.07476-.95112,.19907-1.40669,.27383-1.92959,.22399-4.24744,.49782-6.48079,1.89221-.74187,.44828-1.17511,1.07071-1.31445,1.81744-2.07897-.54766-4.53874-1.14517-6.87908-1.59345,.59751-.1243,1.19501-.24891,1.78751-.39814,8.47998-1.91713,16.47703-4.97943,23.27892-11.90091,9.64764-9.80963,12.49583-22.55695,12.94639-35.90178,.42838-12.7224-1.32448-25.96755-.86632-37.39555,.48293-12.02521,2.39261-24.9716-4.12055-35.9264-4.13544-6.9464-10.52141-11.3034-17.08928-15.58563-5.97036-3.8841-12.10256-7.69313-16.32264-13.94234-5.67905-8.41524-8.54973-19.84325-11.75138-29.40367-.94124-2.81339-1.72794-6.74703-3.01261-10.20777-.99093-2.68878-2.29049-5.07911-4.02588-6.74703-.70707-.67227-1.41916-.8218-2.02168-.8218-.56012-.02492-1.10049,.14953-1.60333,.4732-.47548,.32367-1.04077,.99595-1.40426,1.99159-.29131,.79688-.48794,2.01681-.78913,2.63924-1.47401,3.01246-2.61918,6.17444-4.56868,8.93799-5.64425,7.94235-11.83617,16.05884-18.13005,23.50306-18.91933,22.40742-42.91033,39.78558-61.59306,62.46683-10.28253,12.49841-19.72351,23.97596-24.05817,39.93511-4.41429,16.28252-5.53211,33.73544-7.80771,50.81484-2.2133,16.58158-5.52223,32.81456-14.37816,47.05565-14.64196,23.57752-41.34165,42.82296-61.4759,61.81948-13.03118,12.29934-27.79517,26.91395-28.50725,46.23416-2.08383,56.44192,38.81714,92.46801,84.65528,117.98757,18.98148,10.55636,43.4156,20.06724,65.71589,14.4903,7.00369-1.76821,11.54486-4.68098,14.38819-8.31586,4.26977-5.42741,4.79009-12.54825,3.48551-20.29092-1.9495-11.57753-8.03671-24.59869-8.76384-34.35817-.48794-6.52334,4.18528-13.71835,8.38546-18.2498,.30377-.32337,3.57775-3.03738,5.9579-5.67662,1.22981-1.34454,2.22819-2.7134,2.69638-3.78441,.93106-2.14081,.36091-3.75949-1.09305-4.73021-1.75529-1.17009-3.9885-1.34454-6.32139-.84672-2.50719,.49782-5.15129,1.79252-6.92634,2.26603-7.35715,1.96636-15.72756,5.60186-23.45063,4.08286-4.35457-.84672-10.53402-4.00871-14.45034-8.19126-2.06651-2.21558-3.53535-4.70529-3.38354-7.34453,.0971-1.69284,.88638-3.38628,2.47725-5.07911,1.97183-2.09127,4.51884-2.46479,7.17039-2.43987,3.38354,.02492,6.94883,.69719,10.18543,.57259,13.83034-.49782,27.80261-2.53956,41.51853-4.30716,7.31232-.92118,13.9896-3.63488,20.94344-5.6517Zm-37.39798-13.22022c-4.61837-.07476-9.79702-1.14548-14.86853-1.56853-4.94463-.39844-9.80203-.24891-13.70102,2.73862-4.78021,3.68473-8.68649,6.97132-12.90916,9.70994,11.35066-.44828,23.23652-1.61837,34.25362-2.938,4.98687-.59751,6.71466-3.78441,7.22509-7.94204Zm-4.49893-42.30021c-4.28725-1.24486-8.57465-3.03768-12.92162-3.18691-3.1047-.12461-9.79702,2.21588-13.88262,4.95451-.87392,.59751-1.62339,1.19501-2.14872,1.81744-.16184,.19937-.30118,.37352-.39829,.57259-.02234,.04984-.04483,.09969-.0623,.14953,.11215,.09969,.44327,.42336,.7519,.59751,.76193,.44828,1.81015,.8215,3.17946,1.19501,2.37514,.62243,5.09887,.12461,7.78279-.59751,3.08722-.8215,6.12217-2.04143,8.64425-2.83831,2.8333-.92118,5.89316-1.81744,9.05515-2.66386Zm72.26142-100.1116c-.5153,.09969-1.03075,.19937-1.54604,.29875l-.76436,.12461c.37337,.24891,.73701,.49782,1.08803,.79657,.77424,.62243,1.4962,1.39439,2.16604,2.16634-.15682-1.34454-.09467-2.5894,.31623-3.61027l-1.2599,.22399Z" fill="#cca646" fill-rule="evenodd"/></g></svg>