<?xml version="1.0" encoding="UTF-8"?><!DOCTYPE svg PUBLIC "-//W3C//DTD SVG 1.0//EN" "http://www.w3.org/TR/2001/REC-SVG-20010904/DTD/svg10.dtd" []><svg xmlns="http://www.w3.org/2000/svg" xmlns:xlink="http://www.w3.org/1999/xlink" height="480.6" preserveAspectRatio="xMidYMid meet" version="1.0" viewBox="81.1 15.5 350.1 480.6" width="350.1" zoomAndPan="magnify"><g id="change1_1"><path d="M245.89123,306.14489c2.4601-.18204,4.94548-.67381,7.5598-.85459,7.81896-.49177,17.26871-1.03536,25.63127-3.59912,5.87718-1.81157,11.2373-4.60794,15.19798-8.98327,.98353-1.06191,.90642-2.69271-.15549-3.65095-.23261-.20733-.46522-.36282-.72438-.46648,1.37164,.13021,6.67993-.80275,9.52687-2.51066,2.17566-1.29452,3.05553-3.15919,2.71925-4.81653-.23261-1.21614-1.06191-2.19967-2.69271-2.35517-1.32107-.15549-4.3235,.9317-4.68632,1.06065-1.21741,.49303-2.38172,1.03663-3.52074,1.32107-.85459,.20733-1.63079,.12895-2.3046-.82804-2.38172-3.36651-3.26159-7.74184-4.47899-11.88457-1.45002-4.99604-3.36525-9.65708-7.53452-12.76317-4.42716-3.28813-11.21076-3.47018-16.49124-3.3918-1.03663,.02528-2.35643,.25789-3.62567,.28444-.51705,0-1.03536,.12895-1.37164-.20733-2.12256-2.3046-2.25277-5.72168-2.53721-9.06165-.33627-3.9354-.77747-7.81896-2.64087-10.77082,1.88995-.28444,3.52074-.85332,5.09971-1.44875,2.17566-.8293,4.27293-1.73572,7.37902-1.03663,.93297,.23387,1.86467,.93297,2.8482,1.68389,1.3729,1.06065,2.76982,2.25151,4.14272,3.15792,1.88995,1.21741,3.80518,1.88995,5.64457,1.68262,1.91523-.20733,3.90885-1.26797,5.69514-4.24512,4.97076-8.20833,1.0872-16.00074-4.68632-23.56054-2.51066-3.31468-5.33358-6.57627-7.61163-9.8644-2.0189-2.92531-3.62441-5.82535-3.88356-8.82904-.90642-9.96807-.28444-22.8349,3.28813-34.07094,2.3046-7.25008,5.82535-13.82635,11.05526-18.38246,.3881-.36282,.80275-.69909,1.21741-1.01008-3.18447,7.37902-4.45371,16.00074-3.2363,25.45049,.10366,.69909,2.51066,8.33601,4.21984,11.00343,.64726,1.03536,1.37164,1.57896,1.88995,1.81157,.87987,.36282,1.65734,.31099,2.38172-.05057,.87987-.38937,1.73446-.95825,2.56376-1.60551,1.19086,1.63079,3.02898,3.00243,5.20337,4.09089,3.72807,1.83812,8.41439,2.84694,11.26259,3.10609,13.48881,1.26924,31.35295,.33627,43.62562-6.18817,.15549-.1024,.30972-.20606,.46522-.33627,.62198,.07838,1.26924,.13021,1.94178,.13021,4.2211,.05183,9.70891-.31099,13.30803-2.87475,.43993-.30972,2.48538-2.12256,3.08081-3.26159,.59543-1.16557,.43993-2.17439,.07838-2.90003-.18204-.36282-.59543-.98353-1.55368-1.3198-.64726-.23387-3.67624-.51831-4.03906-.5436-4.14272-.85459-8.51805-1.81284-12.50528-3.18447-6.26528-2.20094-11.85802-6.21471-18.09675-8.23361-12.79098-4.14272-24.7514,.25916-35.36673,7.14515-2.35643,1.52839-4.55737,4.03906-6.73176,6.47261-1.24269,1.3729-2.4601,2.74454-3.75462,3.7799-.07712-.18078-.18078-.36156-.23261-.51705-1.21614-2.77108-2.53721-6.73176-2.58904-7.1717-1.4753-11.21076,1.03536-21.07516,6.31711-28.79046,4.27167-1.26797,8.82904-1.78629,13.30803-2.56249,15.79341-2.71925,32.75114-5.10097,48.64821-1.63206,5.2552,1.13903,10.97688,3.05553,14.887,6.88726,.41465,.3881,4.58266,6.44732,5.59274,7.5598,1.29452,1.47656,2.82165,.98353,3.10609,.88113,.59543-.25916,1.39818-.85459,1.761-2.04544,.33627-1.08846,.36282-3.47018,.33627-3.83173-.15549-5.38541-3.36525-9.4763-7.61163-12.40162-11.57358-7.94917-26.0712-14.11079-40.15671-15.22453-18.25225-1.44875-34.14932,5.61928-43.36646,18.14985-3.3387,1.16431-6.49789,2.82165-9.37137,5.30703-14.47361,12.63549-17.70991,39.01768-16.1044,56.82999,.28444,3.10609,1.57896,6.16162,3.41708,9.1906,2.48664,4.06561,6.03267,8.10466,9.14003,12.16901,4.40188,5.74697,8.15523,11.4952,4.37533,17.76048-.64726,1.06191-1.13903,1.70917-1.83812,1.78629-.75092,.07838-1.4753-.41339-2.25277-.90642-1.55368-1.00882-3.13264-2.45883-4.65977-3.54603-1.3729-.95825-2.71925-1.68262-4.01377-1.99361-3.67624-.8293-6.39423-.18204-8.98327,.72438-1.96833,.69909-3.80645,1.63079-6.26528,1.761-.25916,.02528-.49177-.15549-.77747-.28444-.3881-.23387-.80275-.49303-1.21614-.75092-1.47656-.9848-3.00369-1.99361-4.37533-2.33115-2.3046-.59543-6.99092-.9317-10.43455,.15549-3.08081,.9848-5.22992,3.02898-5.30703,6.29183-.05183,1.94178,.87987,3.13264,2.30334,3.85702,1.68389,.85459,4.68632,.59669,6.03267,.49303,1.94178-.18204,3.85828-.85459,5.72168-1.29452,1.70917-.41465,3.36651-.67381,4.86836,1.03536,1.96707,2.27805,1.99361,5.72168,2.30334,9.08693,.38937,4.53082,1.01008,9.00982,3.91011,12.14246,1.0872,1.14029,2.56249,1.70917,4.24638,1.83812,1.55241,.10366,3.31342-.23261,4.60794-.25789,4.24638-.05183,9.78603-.2857,13.33332,2.35517,3.2363,2.43355,4.50554,6.18817,5.64457,10.07173,1.13903,3.88356,2.09728,7.89607,3.9354,11.31442-2.32989-1.06191-4.58266-2.35643-6.86071-3.59912-5.17809-2.8482-10.38272-5.43724-16.07785-5.43724-2.02016,0-3.80645,.67381-5.54091,1.52839-1.68262,.80275-3.28813,1.88995-5.43724,1.60425-3.05553-.3881-5.61802-1.73446-8.25889-2.74327-3.31468-1.24395-6.67993-2.07199-10.82265-1.03663-3.02898,.75092-5.74697,2.25277-8.4915,3.75462-2.3046,1.26797-4.63449,2.51066-7.35374,2.95186-.41339,.07712-2.53721,.20606-3.62441,.25789-.05183-.05183-.12895-.07712-.18078-.12895-.59543-.41465-1.11374-.59543-1.3729-.64726-.74966-.15549-1.3198,0-1.73446,.20733-.59543,.25916-1.03536,.72438-1.29452,1.37164-.15549,.36282-.46522,1.21741,.20733,2.4601,.3881,.72438,1.11374,1.39818,2.25277,1.73446,.51831,.46648,1.11374,.95825,1.37164,1.21741,1.68389,1.73446,3.3918,3.44236,5.07442,5.20337,5.33358,5.61802,10.38272,10.35617,17.26998,14.1879,1.70791,.95825,3.41708,1.50185,5.07442,1.761-4.01377,7.66347-3.36651,17.08793,.15549,26.04592,1.8634,4.68632,4.47899,9.24243,7.5598,13.33332-5.46379-1.68262-11.15893-2.79637-16.72511-4.21984-5.74823-1.47656-11.36625-3.28813-16.38884-6.57627,2.87348-1.78629,4.55611-4.7647,5.35886-8.25889,1.06191-4.68632,.5436-10.25251,0-13.90346-1.37164-9.0882-5.35886-20.16874-12.01351-28.1432-4.63322-5.56619-10.53695-9.63053-17.70865-10.71899-4.35005-.64726-7.7153,.38937-10.35617,2.51193-.15549-1.16557-.36282-2.32989-.59543-3.44363-1.29452-5.6964-3.7799-10.5635-7.76713-13.90346-4.01251-3.36525-9.57996-5.28175-17.21688-4.8671-6.86071,.3881-11.70252,5.72168-14.887,13.10071-.36282,.85459-.72564,1.73446-1.06191,2.64087-.3881-1.86467-.87987-3.62441-1.50185-5.20463-2.14784-5.69514-5.69514-9.42321-10.84794-9.73419-10.20068-.59543-16.07785,4.7116-19.4431,12.40162-.25916,.56888-.49177,1.19086-.72564,1.81157-.85459-2.43355-2.07073-4.3235-3.62441-5.46253-1.63079-1.21614-3.57258-1.34635-5.56619-.64726-3.10736,1.13903-6.42078,4.71287-7.58635,6.36894-6.39423,9.00982-8.15523,20.35079-8.41439,31.14689-.64726,25.39866,5.25646,47.0427,19.31416,68.06603,11.65069,17.44949,25.26971,22.08398,43.36646,30.23921,6.96437,3.13264,12.76444,7.35374,20.24712,9.50158,12.47873,3.59912,27.75383,6.60282,38.00634,15.27636,7.63818,6.42078,10.51166,15.43059,12.19429,24.93218,1.78755,10.14884,2.17566,20.91967,4.71287,30.18864,.36282,1.37164,1.78629,2.17439,3.15792,1.81157,1.39818-.3881,2.20094-1.81157,1.83812-3.18447-2.51066-9.11348-2.84694-19.70226-4.63322-29.72216-1.86467-10.69244-5.33358-20.73762-13.93001-27.9877-10.79611-9.13876-26.7703-12.50528-39.92284-16.28518-7.22353-2.07073-12.815-6.21345-19.54677-9.26897-17.11448-7.7153-30.16209-11.85675-41.19207-28.37581-13.43698-20.09036-19.055-40.80271-18.43429-65.06234,.23387-9.78603,1.65734-20.11691,7.4574-28.27214,.72438-1.01008,2.51066-3.08081,4.40061-4.14272,.33627-.20733,.69909-.36282,1.06191-.43993,.12895-.02528,.28444-.07712,.41339,.02528,.93297,.67381,1.50185,1.94178,1.96833,3.44363,.62071,1.96833,.95825,4.3235,1.13903,6.83543,.59543,8.15523-.46648,17.86414-.46648,21.98158,.02655,8.85432-.28444,17.78576,.07838,26.64009,.02528,.67381,.12895,1.01008,.12895,1.06191,.31099,.95825,.88113,1.32107,1.16557,1.47656,.5436,.30972,1.0872,.3881,1.60551,.33627,.15549-.02655,2.17439-.31099,2.30334-2.51193,.02655-.56888,0-4.78998,.05183-6.42078,.10366-6.36894,.36282-12.68606,.41465-19.055,.07712-6.99092-.28444-18.09801,2.09728-27.26333,2.09728-8.15523,6.42078-14.83516,16.05131-14.26502,1.96833,.10366,3.3918,1.21741,4.55737,2.87348,1.45002,2.07199,2.40826,4.94548,3.10736,8.12995,.82804,3.9354,1.24269,8.33727,1.44875,12.55711-.98353,5.17809-1.55241,9.94152-2.04418,13.12599-.67381,4.50554-1.3729,8.9327-.41465,13.46353,.25916,1.13903,.5436,3.67624,.87987,4.91893,.20733,.82804,.5436,1.37164,.77747,1.65734,.95699,1.0872,2.0189,1.13903,3.00243,.77621,.43993-.15549,1.29452-.57015,1.761-1.91523,1.65734-4.84181,1.34635-10.64188,1.26797-15.63792-.07712-2.90003,.18204-9.0882-.07712-15.92362,.9317-4.99604,2.25277-10.32962,4.21984-14.86045,2.3046-5.35886,5.43724-9.68363,10.43455-9.96807,6.00612-.33627,10.408,1.01008,13.56593,3.65095,3.18447,2.66616,5.02259,6.54972,6.05796,11.08055,.59669,2.69271,.90642,5.56619,.9848,8.5446-3.31468,7.06804-3.91011,17.16505-4.53082,22.75779-.43993,3.88356-1.63206,7.63692-2.20094,11.52048-.20733,1.34635-.64726,4.8671-.57015,5.41069,.23387,1.63206,1.42473,2.04544,1.99361,2.17566,.33754,.07712,2.33115,.43993,3.15919-1.9165,3.15792-8.87961,7.37902-24.64774,7.32719-38.68015,1.83812-3.31342,4.60794-5.56619,9.08693-4.89364,5.87718,.88113,10.69244,4.32476,14.49889,8.90742,6.03267,7.24881,9.60525,17.34583,10.84794,25.57944,.46648,3.15792,1.01008,7.97445,.07838,11.98696-.46648,2.0189-1.26924,3.88356-2.90003,4.94548-.13021-.13021-.31099-.25916-.41465-.38937-.59543-.67254-1.13903-1.57896-1.65734-2.61433-2.32989-4.45371-4.03779-10.89977-4.29695-11.72781-.18204-.57015-1.21741-4.45371-1.96833-6.00739-.75092-1.60551-1.99361-2.04544-2.53721-2.09728-1.0872-.10366-1.8634,.18204-2.43355,.59543-.82804,.59543-1.42347,1.58023-1.42347,3.00369,0,.85459,.28444,2.0189,.67254,3.2363,.3881,1.26924,.95825,2.64087,1.11374,3.57258,1.19086,7.14642,4.29695,14.80988,10.14884,19.39254,6.10979,4.78998,13.17782,7.24881,20.47973,9.11348,6.86071,1.75974,13.92875,3.00243,20.47847,5.51436,7.0162,2.69271,15.74158,11.77964,21.15228,17.42421,14.31811,15.01594,17.96907,39.76734,20.06508,59.10805,2.33115,21.74771,3.96194,43.36646,4.32476,65.21783,.02528,1.45002,1.21614,2.58904,2.64087,2.56376,1.42347-.02655,2.56249-1.21741,2.53721-2.64087-.36282-22.00686-1.99361-43.80766-4.37533-65.68432-2.20094-20.37607-6.37021-46.34361-21.46326-62.13702-.90642-.95825-1.9165-1.99361-3.00369-3.08081,16.25863,3.70152,35.93561-.85459,50.87444-5.95556,19.055-6.49789,43.93661-22.13581,54.31806-39.92284,3.13264-5.35886,5.90373-18.20041,9.73546-28.24686,1.19086-3.10609,2.45883-5.92774,3.9354-8.07685,1.13903-1.70917,2.32989-3.02898,3.75335-3.47018,.10366,.20733,.20733,.51831,.28444,.75092,.2857,1.19086,.36282,2.77108,.31099,4.55737-.10366,4.55611-.9317,10.25251-1.42347,14.887-.36282,3.46891-.49177,6.39423-.18204,8.05157,.4412,2.25277,3.15919,7.89607,6.03267,10.51166,1.78629,1.65734,3.75462,2.20094,5.43724,1.70917,1.13903-.36282,2.32989-1.21741,3.2363-3.03024,3.33997-6.52444,3.57258-13.54064,2.48538-20.50502-1.01008-6.57627-3.2363-13.07416-4.97076-19.08028-.02528-.05183-.05183-.15549-.07712-.31099,4.19329-1.52839,8.18052-4.66104,10.97688-7.79368,9.63179-10.71773,13.30803-31.81944,12.16901-45.48902-.93297-11.00343-8.20706-21.46326-20.40262-20.40135-2.19967,.18078-4.81527,1.78629-7.17043,3.00243-.54486,.2857-1.39818,.57015-1.761,.69909-.98353-1.68262-1.16557-4.81527-1.24269-8.28418-.15549-6.42078,.46522-13.90346,.10366-17.47604-2.51193-26.22796-1.0872-53.36108-6.7836-79.27679-2.71799-12.34978-8.1034-26.58952-17.1916-35.72828-4.94421-4.94548-10.84794-8.72538-16.62145-12.68732-5.43724-3.67624-10.74427-7.53325-14.83516-12.86683-4.27167-5.51436-7.04149-11.98696-11.72781-17.1916-.2857-.31099-3.72807-3.80518-4.6092-4.35005-1.60551-1.00882-2.8482-.18078-3.26159,.20733-17.11448,15.2751-43.28935,24.82978-64.72607,32.93318-6.86071,2.58904-14.67967,4.37533-22.03341,6.98966-7.81896,2.77108-15.1196,6.47261-20.5303,12.7126-6.39549,7.37902-7.22353,17.42421-5.46379,28.06482,2.43355,14.73277,9.83912,30.65512,11.72907,41.2439,1.73446,9.8644-.51831,16.51779-3.41835,23.43033-2.07073,5.02386-4.45245,10.17539-6.10979,16.59617-1.60551,6.21345-1.68262,12.37633-2.14911,18.5114-.41339,5.61928-1.13903,11.18547-3.98723,16.67328-5.53964,10.61533-16.80223,17.1916-29.12673,19.98797-12.47873,2.87348-26.09649,1.86467-36.22005-2.92531-1.29452-.62198-2.8482-.05183-3.44363,1.24269-.62198,1.29452-.07712,2.82165,1.21741,3.44363,13.28149,6.26528,32.05204,6.70522,47.5863,.9317,10.53695-3.9354,19.57331-10.69244,24.56936-20.29769,3.18447-6.13633,4.09089-12.37633,4.55737-18.6669,.43993-5.82535,.49177-11.70252,2.0189-17.60625,1.99361-7.76713,5.12625-13.61776,7.37902-19.65043,2.40826-6.52444,3.85828-13.28149,2.22622-22.57701-1.88995-10.5635-9.29426-26.48586-11.72781-41.19081-1.50185-9.00982-1.13903-17.55442,4.29822-23.8197,4.81527-5.56619,11.36499-8.75066,18.32936-11.21076,7.37902-2.64087,15.22453-4.42716,22.13707-7.04149,21.28122-8.05283,47.0427-17.60625,64.6224-32.41486,.95825,.9317,2.14911,2.09728,2.27805,2.25151,4.6092,5.10097,7.30065,11.46991,11.46991,16.88061,4.45245,5.77351,10.14884,9.99461,16.02602,14.00713,5.51436,3.75462,11.15893,7.32719,15.87053,12.0388,8.44094,8.49277,13.30803,21.72242,15.8187,33.19234,5.64457,25.70838,4.19455,52.63418,6.67993,78.65481,.3881,4.11617-.51705,13.46226,.02655,20.32424,.25916,3.4942,.98353,6.42078,2.14911,8.1034,1.3198,1.94178,3.15792,2.40826,5.35886,1.88995,1.45002-.33627,3.13264-1.29452,4.84181-2.22622,1.13903-.62198,2.25151-1.29452,3.28813-1.3729,9.11348-.77621,14.10952,7.45614,14.78333,15.68975,1.06065,12.47873-2.07199,31.79415-10.84794,41.60546-2.14911,2.40826-5.12625,4.89364-8.36256,6.16288-.41465-1.60551-.93297-3.2363-1.39818-4.29822-.77747-1.68262-1.96833-2.43355-2.69271-2.56376-.51831-.12895-1.03536-.07712-1.55368,.13021-.36282,.15549-.80275,.41465-1.19086,.95825-.20733,.28444-.49177,.90515-.64726,1.81157-.28444,1.58023-.28444,4.66104,.59543,6.70648,.12895,.28444,.25916,.56888,.41465,.82804-.38937-.36282-.77747-.64726-1.21741-.85459-.98353-.43993-2.17439-.56888-3.59912-.15549-3.46891,1.01008-6.57627,4.63449-9.06165,9.78729-4.84055,10.09701-7.87079,26.25198-11.44337,32.36303-9.81257,16.82878-33.47678,31.4819-51.5217,37.64478-15.5608,5.30703-36.58287,10.30434-52.63544,4.45245-9.13876-3.33997-19.02972-14.21319-23.63766-25.91571-2.95186-7.53452-3.75462-15.43059-.33627-21.82608,.3881-.69909,.41339-1.50185,.12895-2.17439Zm154.25536-32.13042c.64726,1.0872,1.11248,2.56376,1.29452,4.35005,.46522,4.55611-.46648,11.65069-1.13903,17.5797-.41465,3.4942-.75092,6.49789-.43993,8.07685,.28444,1.39818,1.78629,4.53082,3.4942,6.67993,.41465,.49177,1.06191,1.06191,1.45002,1.34635,.02655-.05183,.05183-.10366,.07838-.15549,2.79637-5.53964,2.89877-11.46865,1.99361-17.39766-1.01008-6.31711-3.18447-12.60894-4.84181-18.409-.05183-.12895-.13021-.5436-.25916-1.11248-.62071-.20733-1.16557-.51831-1.63079-.95825Zm-108.09253,14.39523c-5.07442-.90642-9.78729-3.54729-14.47234-6.13633-4.40188-2.40826-8.75192-4.78998-13.59247-4.78998-1.60551,0-2.92658,.8293-4.35005,1.52839-2.20094,1.06065-4.47899,1.94178-7.30065,1.57896-3.47018-.46648-6.42204-1.9165-9.42447-3.05553-2.35643-.90642-4.78998-1.57896-7.74184-.85459-2.61433,.64726-4.91893,1.99361-7.27536,3.28813-2.64087,1.42473-5.33232,2.79637-8.36256,3.3918,.9848,1.03536,1.99361,2.07199,2.97841,3.10736,4.99604,5.20337,9.65708,9.68236,16.07785,13.2562,2.66616,1.4753,5.2552,1.42347,7.92262,1.16431,2.14784-.23261,4.34878-.62071,6.62684-.75092,6.24-.3881,13.56719-.80275,20.45445-2.35517,6.49789-1.45002,12.63422-3.91011,16.88061-8.56988,.41339-.46648,.98353-.75092,1.57896-.80275Zm-49.83907-59.49615c-1.65734-.15549-3.67624-.10366-5.3083,.41465-.51705,.18078-1.03536,.36156-1.37164,.69783,.12895,.02655,.23261,.02655,.31099,.02655,.80275-.02655,1.57896-.12895,2.04544-.18078,1.45002-.13021,2.89877-.57015,4.3235-.95825Zm65.3215-61.54159c-3.36651,.90642-6.60282,2.22622-9.76074,3.70279-.05183,.02528-.36282,.18078-.75092,.36156,.64726,.51831,1.42347,.95825,2.22622,1.34635,3.15919,1.57896,7.06804,2.38172,9.44975,2.61559,.4412,.02528,.88113,.07712,1.32107,.10366-1.761-1.88995-2.8482-4.55737-2.48538-8.12995Zm25.99409-.02655c.25916,3.18447-1.06191,5.87718-3.31468,7.87079,5.12625-.59543,10.15011-1.68262,14.65439-3.3918-2.35643-1.03536-4.60794-2.27805-7.24881-3.20976-1.3729-.49177-2.71925-.90642-4.09089-1.26924Zm-5.46253-1.13903c-4.94548-.75092-9.91624-.72438-15.09432,.02655-.64726,2.61433-.31099,4.53082,.87987,5.77351,2.04544,2.17439,5.92901,2.32989,9.16531,1.37164,3.26159-.98353,6.16162-3.28813,5.12625-6.83416-.02655-.10366-.05183-.23387-.07712-.33754Zm34.66637,1.83812c-3.96068-.82804-8.05157-1.78629-11.80619-3.08081-6.23873-2.17439-11.77964-6.1869-17.99309-8.20706-11.18547-3.62441-21.61876,.51831-30.93957,6.57627-.33627,.20733-.69909,.46648-1.03536,.75092,3.05553-1.16557,6.18817-2.09728,9.39792-2.66742,10.04518-1.78629,19.31416-1.0872,28.97124,2.3046,2.87475,1.01008,5.33358,2.38172,7.87079,3.49546,2.17566,.95825,4.40188,1.73446,7.11987,1.761,2.58904,.02528,5.82535,.05183,8.41439-.93297Zm-.41339-42.51188c-9.39919-5.28175-20.16874-9.16531-30.65512-9.99335-13.41043-1.03536-25.42394,3.02898-33.83833,10.71899,2.25277-.41465,4.53082-.77747,6.7836-1.16557,16.43941-2.8482,34.09749-5.20337,50.61528-1.60551,2.35643,.51831,4.76343,1.19086,7.09458,2.04544Z" fill="#cca646" fill-rule="evenodd"/></g></svg>