<?xml version="1.0" encoding="UTF-8"?><!DOCTYPE svg PUBLIC "-//W3C//DTD SVG 1.0//EN" "http://www.w3.org/TR/2001/REC-SVG-20010904/DTD/svg10.dtd" []><svg xmlns="http://www.w3.org/2000/svg" xmlns:xlink="http://www.w3.org/1999/xlink" height="487.8" preserveAspectRatio="xMidYMid meet" version="1.0" viewBox="50.4 15.2 411.0 487.8" width="411.0" zoomAndPan="magnify"><g id="change1_1"><path d="M253.95281,63.21163c.21069,1.71081,.39382,3.41181,.55935,5.09766-13.17075-3.09577-26.64498-3.64762-40.36772-1.94171-6.15633,.76514-11.382,4.38259-13.48679,9.3524-1.43994,3.40431-1.48511,7.47102,.68996,11.78853,2.15501,4.2748,5.83769,6.44726,10.04481,7.37562,3.79323,.83787,8.02286,.62718,11.71825,.18313,8.31884-1.0011,16.69541-3.2639,25.08714-4.87947,8.05303-1.55049,16.12351-2.50381,24.18143-.95593,6.03093,1.16157,11.88638,3.05826,17.58856,5.286,.72502,.28342,3.46969,1.66074,5.44402,2.11979,1.71846,.39888,3.11323,.03016,3.8208-.59962,.33855-.30103,.68475-.76269,.93311-1.42248,.26352-.69991,.4566-1.79364,.54955-3.09562,.24331-3.37675-.1029-8.48957,.04502-9.53063,.98594-6.92407,4.2699-12.83955,9.23465-17.74168,3.09577-3.05566,8.45941-7.15728,13.89332-9.07403,4.70629-1.66074,9.52053-1.65829,12.41051,3.20372,.5569,.93571,.47161,1.99193,.09784,3.09822-.52428,1.56289-1.60056,3.18612-2.92015,4.81929-4.54582,5.63205-11.85116,11.20637-13.93083,14.0763-4.42041,6.09371-5.188,13.68002-6.16138,20.89257-.21085,1.57545-.22585,4.48809-.65229,7.01947-.12296,.72992-.24591,1.43488-.45905,2.00189-.24086-.2283-.50438-.48416-.70006-.69241-1.09618-1.17152-2.30797-2.31808-3.46188-2.76718-4.94975-1.92655-9.58836-3.28641-14.88431-3.92354-6.82363-.82287-15.53645-3.0431-23.80767-3.81574-5.86035-.54694-11.50741-.36136-16.21385,1.36215-2.88998,1.05867-5.93553,2.96026-7.90741,5.42381-2.23279,2.78984-3.18351,6.25433-1.51282,10.1203,4.09182,9.46525,12.79698,13.19326,23.06014,13.99606,14.15913,1.10384,31.33641-3.47704,41.39883-4.06916,5.99326-.35371,11.26165,.88059,16.70046,3.32147,2.35575,1.05882,4.66877,2.19267,7.00186,3.30157,.70236,.33365,1.89914,1.27687,2.66673,1.60301,.65474,.27592,1.23675,.32109,1.66074,.26337,.59456-.08268,1.07383-.3361,1.45755-.71997,.38387-.38632,.75013-.96328,.75274-1.89654,.01746-5.81778-1.28957-10.77749-2.16251-15.51639-1.16157-6.3119-1.44514-12.19231,4.62345-19.54037,3.29146-3.98387,10.71471-7.86484,17.40558-8.25622,4.01388-.2358,7.79701,.81781,9.94957,4.33758,3.2763,5.36118,1.74847,10.29332-1.1115,14.86915-3.30386,5.28845-8.31379,10.1477-11.33178,14.65585-2.89013,4.31262-2.98783,9.77409-2.97542,15.2028,.00505,3.4821,.09539,6.95424-1.04856,9.90195-.10795-.1179-.20824-.21575-.29598-.28342-2.0221-1.5655-4.1745-2.81235-6.49764-3.88097-6.746-3.10588-12.61125-6.95669-19.87907-8.98124-7.59137-2.11489-18.34114-5.56682-26.19098-4.24218-10.27571,1.73102-17.55594,10.15276-13.26599,20.52876,4.89447,11.83355,15.00956,15.34826,26.45189,16.14602,10.48885,.73007,22.10176-.89805,31.07795,.59717,3.12334,.51923,8.3314,3.23864,13.04779,4.69373,3.92859,1.21179,7.58126,1.46765,9.98708,.05528,.58216-.34375,1.37486-1.32464,1.62322-2.99548,.43394-2.91004-.08023-9.32239-.00505-10.18782,.61723-7.13737,3.07572-13.32126,7.97264-18.53438,3.34168-3.55743,10.1327-8.07063,16.3293-8.94617,3.54732-.49917,6.90402,.27607,8.94862,3.68284,.76009,1.26446,.34865,2.66673-.2133,4.03409-.82792,2.00939-2.13495,3.9537-2.9177,5.56682-4.66357,9.62082-10.72726,14.75615-17.60356,22.69127-4.19961,4.84425-6.6506,10.83016-6.94919,17.13456-2.16251-1.57805-4.23223-2.84236-5.58183-3.57504-11.91899-6.46242-26.66014-10.18537-40.09425-6.87385-9.75648,2.40597-17.74413,11.32443-15.3233,21.94634,2.55649,11.21633,10.99078,14.19925,20.76962,14.57807,8.57486,.33365,18.20578-1.49016,24.6633-.06768,5.35597,1.18147,10.88268,2.46844,15.85999,4.81163,1.88904,.89054,3.78573,2.21013,5.72484,3.39176,2.26296,1.37731,4.58594,2.56139,6.9743,2.98798,.89805,.15802,1.56044-.05022,2.06467-.35876,.71002-.43654,1.26936-1.20429,1.3522-2.38576,.04517-.61217-.07533-1.47271-.27592-2.38591-.17563-.7927-.45155-1.65063-.42659-2.23019,.11806-2.76963,.36642-5.49914,.77785-8.24106,.73497-4.91208,1.36966-10.38611,2.81465-15.51394,1.34975-4.80168,3.40431-9.30738,7.08209-12.6189,1.29463-1.16402,3.27891-1.97172,5.54937-2.48865,3.72295-.84292,8.19849-.84292,12.08941,.13811,3.84346,.97078,7.18499,2.83226,8.10325,6.12372,1.03096,3.68529-.51188,7.7595-2.82996,11.78348-3.94115,6.84124-10.29562,13.44407-13.42661,17.85192-4.68623,6.59548-9.82401,13.53196-11.6103,21.55987-.48661,2.18012-.6673,6.40974-1.16647,10.40372-.3237-.97844-.69241-1.94676-1.1115-2.9177-3.19347-7.38818-7.84218-12.87722-15.11491-16.65039-5.90797-3.06561-11.8311-6.66561-17.66894-8.84573-4.7288-1.76608-9.41763-2.61406-14.00862-1.74097-4.63616,.88304-9.21949,3.49205-13.6373,8.85568-3.713,4.5132-5.91057,10.474-4.14189,16.28918,2.77453,9.12915,9.05397,13.13813,16.51488,15.24537,6.7685,1.9117,14.56551,2.14995,21.19606,3.7179,8.52463,2.01705,19.0386,6.64815,26.74787,10.88543,2.08228,1.14396,3.77563,2.4735,5.07515,4.47554,.28097,.43394,.46656,1.20413,.70251,1.87648,.28587,.81536,.61952,1.55034,.96833,2.0195,.64724,.87049,1.45755,1.23185,2.2553,1.26446,.57206,.02251,1.21929-.113,1.88904-.62718,.36121-.27607,.92071-.94337,1.03356-2.07232,.1104-1.07368-.15052-3.38425-.15052-3.81574-.01501-4.11172-.0049-8.04537,.75258-12.10702,2.03221-10.89784,3.92369-26.48696,11.56529-34.97653,3.61745-4.01893,8.62493-4.20451,13.10797-2.42343,4.76662,1.89409,9.01891,5.96585,10.7072,10.4815,2.33814,6.24667,.23841,12.37039-3.26635,17.98743-3.80564,6.10626-9.30738,11.62286-13.48679,16.101-5.83524,6.25173-10.3685,13.63975-13.50194,21.59738-1.26446,3.20878-2.23784,6.70083-4.28996,9.52068-.13536,.18818-.34115,.49167-.55935,.82287-3.54732-5.2834-6.35462-10.40877-9.45545-15.06239-5.52915-8.30139-11.96141-15.15258-24.50497-18.99603-5.37374-1.64558-12.55367-2.08212-18.16811-.20564-3.07066,1.02606-5.68488,2.73457-7.4384,5.20806-1.76118,2.4836-2.69184,5.76006-2.20508,10.01725,.99084,8.69031,6.05344,14.89181,12.59364,19.8189,6.11621,4.61105,13.53196,8.08564,19.69594,11.63036,9.01875,5.18555,19.21928,9.31734,27.17431,16.16362,5.02753,4.32502,7.24027,10.3561,11.34449,15.3158,1.32709,1.60301,2.74207,.89805,3.08567,.70496,.17058-.09784,.36626-.2283,.54694-.41143-1.06112,3.07556-1.66824,6.22401-2.20018,9.36496-.84537,4.9672-1.48771,9.9119-4.00638,14.38499-18.35875,32.58572-44.54222,60.15645-70.42466,86.77647-6.7509,6.94398-14.52034,12.48324-21.53231,19.08867-5.54171,5.22567-9.73872,11.30682-16.96138,14.3098-28.1552,11.70064-63.40764,1.60806-87.45877-15.17018-8.74038-6.09616-19.41742-9.52818-27.28226-16.88114-22.03148-20.59399-40.05918-51.73472-49.0052-80.5347-6.63805-21.36924-18.11039-42.2367-27.86672-62.30901-2.3657-4.87196-4.38535-9.96702-6.83879-14.78386-.29858-.58446-1.1265-2.33309-1.99193-3.38165,.80786-.71507,1.55294-1.49016,2.08717-2.27796,1.1115-1.64068,1.41498-3.36174,.76774-4.90703-.63728-1.52538-1.5704-2.38576-2.57639-2.83731-1.40748-.62978-3.16606-.47926-5.04009,.53178-2.98783,1.61067-6.56026,5.69483-8.92856,8.70026-.34115-.13796-.67985-.28848-1.01595-.45155-3.06821-1.48021-5.93814-3.85341-8.45696-5.66466-14.35987-10.32594-25.55614-32.27963-26.4594-52.72571-.58951-13.33627,3.22884-26.06557,13.73775-34.31673,3.51471-2.75952,6.55276-3.92354,9.31489-3.86091,4.18706,.09279,7.58126,2.92275,10.79494,6.32951,4.12183,4.37019,7.88,9.76399,11.93905,13.25358,.74248,.63713,1.43488,.67985,1.94171,.61968,.59456-.07028,1.13645-.3312,1.573-.85808,.2358-.28342,.49917-.75258,.60452-1.40993,.09294-.57941,.00505-1.6808,.08039-2.21763,.23075-1.59811,.28848-3.21368,.50928-4.81163,.28097-2.04216,.50667-4.26745,1.1314-6.10886,.32859-.96328,.73758-1.82121,1.49016-2.31793,.74263-.49427,1.76869-.552,3.17601-.25602,2.34319,.49182,3.65022,2.18762,4.95725,3.99642,1.79119,2.48115,3.51471,5.21311,6.26673,7.07459,10.91039,7.37562,21.30156,12.99267,34.36941,15.82998,10.6971,2.32313,20.3983,.59456,31.11806-.30348,7.08209-.59211,15.29819-.5595,22.13193-2.72446,4.43282-1.40487,8.1256-3.59005,11.86862-5.53926,3.36925-1.75613,6.78106-3.31902,10.97562-3.68529,.8956-.07778,1.44759-.46411,1.81631-.87814,.34375-.38372,.567-.85043,.63728-1.40487,.06768-.53439-.05528-1.3447-.53439-2.21518-.02756-.05267-.05773-.10535-.09034-.15802,.57451-.09034,1.21929-.41143,1.75858-1.2268,1.1115-1.6808,4.3878-11.08602,4.52071-11.61536,2.33324-9.16177,2.26035-18.73006,.83297-28.01479-.9057-5.89036-1.60301-13.42416-3.54487-20.16005-.04762-.17058-.09784-.34115-.14791-.50928,14.76625,16.86108,21.44197,41.02751,24.32445,63.0691,2.18502,16.72312,3.64762,30.36793-1.59061,47.01832-5.72989,18.21574-9.90685,37.43257-18.88303,54.24588-1.49016,2.78969-2.27031,7.16998-1.42493,10.80765,.64479,2.76197,2.18012,5.09506,4.78407,6.3168,4.37019,2.04966,7.60393,1.23185,10.72481-.0075,2.23279-.88809,4.36008-2.1524,7.16983-1.7033,2.70195,.43394,5.74,2.54623,8.74788,3.77057,2.66428,1.08378,5.31096,1.54789,7.74449,.68735,3.9462-1.38987,10.55669-6.13888,16.49222-7.77205,2.97282-.81521,5.77767-.82777,7.5488,1.85903,.44144,.66975,.75503,1.10889,.62963,1.51527-.10535,.35126-.51173,.49412-.9106,.70236-1.2343,.64984-2.87008,1.08133-4.35518,1.573-4.57843,1.52033-10.27816,3.22378-14.82903,6.0862-3.34413,2.10478-6.08115,4.82419-7.5387,8.42679-1.78369,4.4077-1.56289,9.25961-.54679,14.16158,.43394,2.09223,1.0109,4.19456,1.60806,6.26933-4.03654-.30103-8.03052-.65229-11.97167-.64724-6.72088,.00505-13.2836,1.01855-19.65077,4.74396-6.26413,3.66523-11.4823,9.6836-17.10179,14.21931-1.83391,1.48021-4.11693,2.80975-6.27439,4.27235-2.45849,1.66579-4.75651,3.50476-6.2969,5.76756-.78765,1.15406-.81781,2.707,.98104,3.96381,.96328,.66975,3.02794,1.36215,4.8467,1.87648-.48906,.9057-.31359,2.05961,.48677,2.77713,20.56888,18.38386,56.54895,31.31375,83.62037,19.42247,7.98274-3.5046,17.38797-9.00375,23.75009-15.05473,.73758-.70251,4.37264-3.82325,5.55182-5.62715,.84782-1.29692,.78259-2.47105,.48906-3.13834-.1153-.26597-.3361-.64724-.76009-.95577,2.67684-2.22774,4.21462-5.24068,3.62756-8.97618-.06768-.43899-.30103-1.14656-1.13645-1.70101-.74003-.49167-4.87441-1.82871-5.15784-1.91905-3.37675-2.27046-6.194-4.98481-8.93362-7.97279-7.23261-7.8973-14.63319-16.1134-26.65998-14.85659-2.52632,.26352-4.71394,1.42999-6.89896,2.57394-1.59566,.83542-3.18367,1.6834-5.09521,1.63823-.86804-.02006-1.73362-.05267-2.59905-.09539-.71752-2.47105-1.44759-4.99477-1.96927-7.50348-.82547-3.98892-1.14151-7.94263,.31099-11.53252,1.39232-3.44198,4.42792-5.71994,7.84984-7.47102,3.81819-1.95672,8.14827-3.23879,11.73066-4.42792,1.82381-.60452,3.8283-1.17902,5.2909-1.99944,1.47271-.82777,2.4836-1.9241,2.89503-3.2613,.41649-1.35465,.29353-3.11828-1.18162-5.35613-2.98277-4.52316-7.5462-5.11772-12.55612-3.74041-6.04088,1.66074-12.78427,6.45231-16.79831,7.86729-1.88399,.66485-3.91864-.28342-5.98576-1.26446-2.85247-1.35465-5.71734-2.98538-8.27367-3.3942-3.07832-.49427-5.59454,.3361-8.03802,1.33964-2.57394,1.05362-5.03749,2.43598-8.64254,.74263-1.29953-.60972-1.96422-1.84892-2.28531-3.22623-.59717-2.57149-.04517-5.66466,1.00584-7.63409,9.10664-17.05922,13.3966-36.53942,19.21178-55.02357,5.45397-17.3428,4.03654-31.55216,1.75858-48.97259-3.61255-27.63857-13.23843-58.23725-36.02509-75.29402-.62213-.54939-1.28942-1.02361-1.98933-1.43244-5.14789-3.55743-10.93811-6.44741-17.4457-8.49462-9.42513-2.96271-19.54788-3.99137-29.3996-3.72035-10.00224,.27592-20.47364,2.26541-29.8487,5.72744-12.53607,4.63095-25.38557,11.46469-36.52181,18.87553-3.65772,2.43598-6.59288,5.65961-9.89934,8.52708-1.72352,1.49521-1.53533,1.42999-3.56999,2.82475-.40378,.27607-1.40487,.70251-1.86898,.97338-.48922,.29108-.7852,.60712-.91811,.79025-.38142,.51188-.46671,1.01105-.46411,1.40993,.0049,.5595,.18803,1.06617,.58201,1.50777,.22325,.25586,.75013,.82532,1.92916,.7953,5.8504-.14056,11.78838-2.48865,17.576-5.37619,5.4163-2.70195,10.70475-5.87046,15.68206-7.83223,25.19493-9.92446,46.32086-17.77429,73.80631-14.27214,3.40691,.43409,7.47592,.14301,11.35199,.43915,2.39326,.18313,4.7239,.57435,6.66056,1.71341,.43149,.29858,.85548,.59962,1.27442,.90815,.2208,.19308,.43654,.39888,.64234,.61968,2.57639,2.76963,4.21462,6.5327,5.38614,10.59925,1.88659,6.54526,2.53888,13.86821,3.41932,19.59305,1.33474,8.68265,1.43749,17.63128-.74508,26.19848-.08268,.3237-1.95672,5.19061-3.08062,8.09069l-.06783-.09294c-.69991-.98333-1.29692-2.20263-1.84892-3.51471-1.94171-4.6285-3.37415-10.28321-5.38369-12.91473-5.32596-6.97185-14.22191-11.34188-22.54076-13.49689-23.95313-6.20411-48.93997,1.21164-70.65036,11.45473-5.05754,2.38576-9.9119,5.23823-15.0849,7.38068-.27852,.1153-3.80319,1.4626-4.4982,1.76363-.52933,.23075-.87294,.55445-1.09128,.8956l-.20319-.04517c-2.95276-.61968-5.06505-.12051-6.62549,.91321-1.55034,1.02851-2.60656,2.65923-3.28396,4.64856-.71247,2.09483-1.0109,4.6236-1.33459,6.94919-.13046,.94827-.20319,1.89914-.28848,2.84986-3.86336-4.19456-7.59137-9.50797-11.85866-13.10307-3.08567-2.59645-6.44236-4.34508-10.21048-4.55822-3.72295-.2133-7.91751,1.05867-12.69914,4.81163-11.69054,9.17937-16.13101,23.26088-15.47627,38.09986,.96588,21.81834,13.02528,45.19696,28.35104,56.21775,2.71435,1.95182,5.83019,4.47309,9.1342,6.06859l.23075,.10795c-10.16026,15.39849-16.72297,34.53493-13.65996,53.22227,.46411,2.83731,1.29708,9.80655,3.76307,13.976,1.39737,2.36325,3.30907,3.90608,5.68227,4.1745,3.06561,.3462,5.76006-.80281,7.97524-2.76703,2.9177-2.58895,4.9597-6.65321,5.8654-9.85923,4.08156-14.44271,.49917-30.4007,.43149-45.22958-.01256-2.23034-.68245-5.94579-.28603-9.14936,.16813-1.37471,.49917-2.66428,1.4626-3.46954,.45905-.38387,1.05622-.62963,1.8088-.74508,.37132,.62473,1.16907,1.97693,1.34715,2.32803,2.44103,4.79173,4.44797,9.86183,6.80357,14.70868,9.65604,19.86897,21.04309,40.51563,27.61346,61.66912,9.16682,29.5126,27.66613,61.40576,50.24195,82.50918,8.02286,7.50103,18.87063,11.07086,27.78664,17.28997,25.2326,17.60372,62.26874,27.91694,91.80875,15.63934,7.75199-3.22118,12.38815-9.59081,18.33869-15.19775,7.05714-6.65321,14.8742-12.23748,21.67287-19.22939,26.15331-26.89839,52.57504-54.78777,71.12457-87.71709,2.78464-4.93964,3.59494-10.3685,4.52821-15.85509,.83542-4.91453,1.77619-9.88189,4.87947-14.45266,4.08416-6.01347,9.74377-10.6997,15.22025-15.50643,5.82529-5.11772,11.44738-10.3685,15.09255-17.19979,1.81876-3.40431,3.08812-8.62998,2.66168-13.34377-.30854-3.42192-1.50777-6.56531-3.81574-8.73533-6.38218-5.99831-14.25208-5.82529-21.64271-2.29802-10.39606,4.9623-19.70084,16.74318-21.69538,25.4459-1.45249,6.32691-2.57394,14.26953-1.21164,20.96531-1.10889-1.44499-2.33814-2.8197-3.78068-4.06165-8.17338-7.03187-18.61461-11.33178-27.87437-16.65774-6.01332-3.45959-13.26093-6.82378-19.22663-11.31938-5.54186-4.17695-9.97223-9.34-10.8127-16.70307-.33365-2.91004,.19569-5.17039,1.39737-6.8688,1.20674-1.70346,3.05321-2.81725,5.17055-3.52221,4.75651-1.59061,10.83766-1.15406,15.38838,.24086,11.30927,3.46449,17.06933,9.68605,22.05414,17.16702,3.51471,5.27589,6.65811,11.15385,10.91039,17.18218,.47161,.66745,1.03356,.97844,1.573,1.12145,.75013,.20074,1.61557,.1029,2.46094-.53178,.83297-.62228,1.88154-2.4761,2.53643-3.37935,2.27781-3.13084,3.44198-6.96909,4.84425-10.52897,2.9252-7.4283,7.14993-14.32726,12.59379-20.1625,5.25828-5.63205,12.45323-12.87982,16.24891-20.82735,2.73196-5.72499,3.74301-11.80599,1.44254-17.95742-2.10739-5.6296-7.35051-10.75743-13.29125-13.11807-6.22906-2.4761-13.14303-1.97938-18.17301,3.6101-8.14842,9.05137-10.48901,25.5638-12.65657,37.18405-.60697,3.25379-.7777,6.4298-.82026,9.66859-1.41988-1.55294-3.09072-2.76458-5.03749-3.8358-8.03802-4.41781-19.00599-9.22209-27.89198-11.32428-6.57282-1.55539-14.29955-1.77619-21.00787-3.67028-6.01347-1.69595-11.16136-4.83185-13.39905-12.18986-1.31453-4.33007,.53929-8.71282,3.30402-12.07196,3.57489-4.34248,7.21745-6.56271,10.97057-7.27518,3.79568-.72257,7.65905,.07013,11.56774,1.53028,5.67462,2.11979,11.42212,5.64461,17.16457,8.62248,6.28434,3.2613,10.27311,8.03036,13.03279,14.4176,.93326,2.15991,1.5779,4.30236,2.027,6.61033,.15052,.77019,.04517,2.40337,.17303,3.24124,.113,.73007,.38647,1.24685,.62473,1.54299,.50683,.63468,1.14151,.89805,1.82381,.92071,.50928,.01746,1.25941-.08039,2.00449-.88564,1.41498-1.53533,2.37581-4.55332,2.90759-7.99775,.6673-4.30756,.80036-9.31734,1.33719-11.73326,1.65829-7.44085,6.53775-13.80298,10.88023-19.91414,3.19117-4.49315,9.64103-11.24404,13.65996-18.21834,2.98783-5.188,4.59849-10.52652,3.2714-15.27813-1.33214-4.76401-5.81273-7.90741-11.3745-9.31228-7.80712-1.96927-17.54354-.4491-21.79828,3.3818-8.38667,7.55125-9.78389,20.35313-11.35444,30.83954-.43394,2.90269-.69746,5.79007-.82287,8.72277-.02511,.62473,.10795,1.46765,.29353,2.33569-1.03601-.45155-2.05456-1.04106-3.06561-1.65829-2.08228-1.26691-4.12688-2.66673-6.15388-3.62006-5.2834-2.48865-11.13624-3.88603-16.82097-5.13778-6.66806-1.4701-16.61012,.30593-25.46595-.03767-7.654-.29613-14.50779-2.26296-16.50723-11.04085-1.84647-8.09559,4.53816-14.68357,11.97396-16.51488,12.35048-3.04555,25.87739,.51433,36.83555,6.45492,1.86393,1.01105,5.28324,3.14584,8.14827,5.69728,.43899,2.34564,1.26186,4.57843,2.72951,6.55031,.53178,.71247,1.87893,2.05456,2.62401,2.40076,.84553,.39382,1.5805,.29598,2.09988,.08023,.69486-.28848,1.43749-.85548,1.51772-2.19757,.13046-2.1524-.83787-4.48809-2.56889-6.70573-.62473-.80281-1.34975-1.59306-2.1325-2.3608-.02756-.2283-.04762-.45905-.06768-.6898-.52183-6.36473,1.61067-12.53362,5.79007-17.35536,7.15988-8.26112,13.4041-13.66747,18.26106-23.68732,1.006-2.07462,2.78203-4.67873,3.54717-7.28023,.67235-2.27796,.64739-4.55332-.60957-6.64815-3.10833-5.17545-8.10065-6.60543-13.48679-5.84519-7.2026,1.01595-15.12762,6.2015-19.01104,10.33589-5.6221,5.98576-8.48191,13.0654-9.19193,21.25884-.05022,.59456,.16552,3.76307,.18313,6.67311,.0075,1.10384-.1179,2.51882-.18818,3.23129-.50667,.13551-1.08378,.14546-1.70346,.1078-1.2317-.07778-2.5989-.40378-4.01893-.84292-4.92464-1.51772-10.38351-4.2898-13.64236-4.8343-9.10159-1.51527-20.87497,.09539-31.50944-.64724-9.6787-.67235-18.42398-3.33648-22.56081-13.34637-3.0457-7.36307,2.52372-13.0703,9.81406-14.29955,7.26767-1.2268,17.18463,2.17997,24.21405,4.13929,7.02437,1.95687,12.67663,5.72744,19.19922,8.73043,1.97938,.9106,3.81819,1.96422,5.54431,3.29391,.08268,.12785,.65214,1.021,.93571,1.41988,.50928,.71002,1.10384,1.1314,1.573,1.30703,.60712,.22585,1.20168,.2208,1.78109,.00505,.40638-.15052,.84292-.41649,1.22925-.93571,3.05566-4.11433,3.24139-9.49557,3.23129-14.97205-.01011-4.5031-.19063-9.08153,2.20523-12.66147,3.04295-4.54077,8.08043-9.44779,11.41201-14.77636,3.77318-6.04103,5.46147-12.57358,1.134-19.65322-3.07817-5.03504-8.35406-6.84384-14.09896-6.50759-7.95258,.46411-16.73813,5.16534-20.64927,9.90179-7.23016,8.75294-6.97169,15.73979-5.58933,23.26088,.64969,3.53232,1.5805,7.19249,1.93911,11.27911-2.32298-1.10629-4.6285-2.23524-6.9792-3.28886-6.13122-2.75202-12.07196-4.11172-18.83036-3.71285-9.9119,.58446-26.82566,5.16289-40.7767,4.07406-8.47946-.66224-15.85509-3.44198-19.23429-11.2641-.90555-2.09483-.32109-3.95876,.88564-5.46898,1.4701-1.83636,3.76797-3.20617,5.92053-3.99382,4.12688-1.51282,9.08658-1.58555,14.22697-1.10644,8.2285,.76774,16.89615,2.98538,23.68471,3.80319,4.90458,.59211,9.19438,1.86148,13.77787,3.64777,.51923,.20059,.98088,.7777,1.48006,1.30443,.90325,.95332,1.80635,1.90925,2.62417,2.40842,.89315,.54694,1.78369,.71002,2.60901,.5569,.62473-.1153,1.25191-.40638,1.83652-.99849,1.08868-1.10874,1.83376-3.06561,2.21013-5.30085,.43394-2.5839,.45905-5.55671,.6748-7.16738,.87554-6.48003,1.36231-13.35388,5.33362-18.82791,1.15651-1.59551,4.03149-4.03899,7.06693-6.88396,3.32163-3.11078,6.82378-6.65305,8.88845-10.04236,2.19757-3.60505,2.77713-7.12466,1.02851-10.06487-3.40676-5.72499-8.54714-7.12236-14.02117-6.18405-7.27273,1.2493-15.20035,7.00431-19.39231,11.14114-5.68733,5.61459-9.41273,12.40821-10.54413,20.33828-.15312,1.07613,.17303,6.35707-.07778,9.84667-.02266,.29353-.06523,.62963-.11285,.93326-1.65323-.43409-3.84086-1.61572-4.43802-1.84892-5.96064-2.32819-12.08191-4.30251-18.38631-5.51415-16.91881-3.25395-33.90775,3.76552-50.67344,5.78257-3.21368,.38632-6.89406,.62213-10.19303-.10795-2.88998-.63713-5.48153-2.042-6.96159-4.97976-1.4701-2.9177-1.53793-5.66221-.56195-7.96514,1.52017-3.5925,5.4062-6.05604,9.85417-6.61048,17.07178-2.12239,33.74728-.61723,49.89575,5.14038,4.71639,1.6808,9.60336,3.51961,14.03128,5.90552,.33625,.18313,3.17601,2.04951,3.98632,2.29787,.8982,.27607,1.55049,.03767,1.89669-.14301,.32859-.17303,1.55784-1.04856,1.14641-2.88493-.4491-1.99193-4.13684-11.24909-4.43282-12.2802-.45415-1.58555-.87064-3.18612-1.24685-4.80168,5.09261-.88549,9.86168-2.51377,14.02362-5.02248,5.79773-3.49955,10.0174-10.97562,11.367-18.84031,1.37226-7.98274-.23825-16.25902-5.60189-21.15104-4.32762-3.9462-10.26576-2.39081-14.72124,.42904-8.49952,5.37358-12.05175,13.98611-12.0568,23.89801-.00245,5.58933,.53684,11.24144,1.54038,16.79325-2.40842,.18818-4.87196,.21835-7.35051,.1104-3.0506-.13046-6.12877-.46916-9.17447-.98333-1.97172-13.25864-5.97565-26.54484-16.32915-35.9248-4.12933-3.74301-11.29181-7.04948-17.576-7.39568-4.19456-.2309-8.00035,.85043-10.55424,3.6049-1.70085,1.83652-2.89503,4.44553-3.17096,8.05808-.86559,11.26655,8.46936,19.72106,16.96383,25.1222,7.00936,4.45808,16.53999,8.28883,26.61251,10.39622Zm59.16546,333.36033c-6.61048-1.40487-13.47423-2.40582-20.15255-.88564-2.38821,.54189-4.9672,1.70346-7.56366,2.7119-2.98293,1.15912-5.99081,2.11489-8.79566,2.10739-2.96777-.01011-5.43881-.98088-7.84968-2.13235-1.94937-.93326-3.84591-2.00449-6.0862-2.45114-4.08661-.81781-8.53459,.35386-12.65136,.51188-7.0922,.27087-14.58067,2.07967-21.68543,1.94921,19.63071,16.52989,52.23144,28.00483,76.99993,17.12445,7.5338-3.30892,16.43465-8.47181,22.44046-14.1867,.36381-.34375,1.49521-1.31208,2.63427-2.39586l-.17318-.00245c-.82792-.04012-1.66074-.09294-2.49371-.15557-3.45943,.7777-6.92392,.84798-9.19193,.26092-1.91155-.49427-3.70534-1.38742-5.43131-2.45604Zm-33.26802-28.63951c-4.48564-.31864-8.92351-.75503-13.29615-.75013-5.92818,.00505-11.73586,.83297-17.35536,4.11938-6.07104,3.55483-11.09107,9.43524-16.54244,13.83559-1.92426,1.55279-4.31246,2.96026-6.58032,4.49805-1.27702,.86298-2.51622,1.76363-3.56738,2.78464,1.6958,.55445,4.07911,1.32709,4.24218,1.33719,7.50363,.54434,15.52649-1.5805,23.0952-1.87143,4.46053-.17073,9.28472-1.31208,13.71524-.42659,2.62662,.52444,4.87686,1.71601,7.15728,2.8073,1.81876,.87049,3.66278,1.6808,5.90047,1.68585,2.28302,.0075,4.70889-.85303,7.13477-1.79625,2.81235-1.09128,5.61459-2.32053,8.20354-2.90759,3.76812-.85793,7.59137-1.00845,11.40206-.74263-1.63057-.64463-3.32408-1.07368-5.08005-1.43244-4.32012-.88304-8.80056-1.66579-13.21347-1.79364-1.70085-.04777-3.45698-.07288-5.22812-.04777-1.88399,1.17167-4.31507,2.14995-7.4309,2.86502-1.60546,.36871-4.31246,.92821-6.7734,1.03111-2.00204,.08529-3.85341-.17563-5.10532-.83542-.91321-.48416-1.20168-1.14901-1.32204-1.64833-.14807-.61707-.07778-1.25436,.32354-1.87648,.20074-.31604,.58706-.72502,1.21424-1.03861,.69501-.3462,2.1325-.70236,2.81235-.92071,1.9241-.61968,4.02399-1.05362,6.01332-1.3597,2.83486-.43899,5.83524-.65719,8.82322-.73758,.56195-.4465,1.03356-.93066,1.42233-1.45004,2.20018-2.9376,1.64083-6.82118,.61478-11.08342-.17563-.74003-.37132-1.48771-.57956-2.24535Zm55.52535,19.81385c-.58706-.20824-1.35725-.47421-1.9091-.65229-1.12145-.36121-2.06727-.74003-2.3683-.94077-3.73046-2.4911-6.84629-5.45887-9.85923-8.75033-6.27684-6.84889-12.3981-14.49294-22.83184-13.4041-1.94416,.20319-3.58239,1.20168-5.26318,2.08228-2.27046,1.18652-4.58854,2.21763-7.30795,2.15501-.40393-.01011-.80526-.02006-1.20674-.03522,.07778,.30609,.15312,.60972,.22585,.91321,1.2343,5.13533,1.51267,9.82921-.56945,13.59473l.9106,.02251c4.67628,.13551,9.42023,.94842,13.99361,1.88414,2.93776,.59962,5.70233,1.39737,8.34901,2.8148,2.1475,1.15146,4.21462,2.73947,6.34712,4.20712,.32354,.22065,.64724,.44144,.97338,.65474l.30593,.06523c4.02399,.88304,8.19604,1.49261,12.33793,1.82626,1.63318-.44144,3.23619-1.08623,4.59849-1.93421,1.75613-1.09634,3.12839-2.55633,3.27385-4.5031Zm-242.08336-89.96243c-.27087,.38127-.454,.64969-.53178,.76759-9.65864,14.51789-16.06088,32.59322-13.16324,50.27472,.35876,2.18747,.88304,7.12466,2.43093,10.85267,.42904,1.03356,.93066,1.96682,1.56795,2.65663,.41649,.4491,.88549,.7878,1.46765,.85303,2.22008,.25081,4.02644-1.02606,5.45887-2.68434,1.71096-1.97678,2.89764-4.55837,3.4896-6.65566,3.96886-14.04123,.32615-29.55517,.25847-43.97017-.01011-2.3732-.6699-6.32201-.25096-9.72632,.09539-.7777,.24591-1.52783,.45921-2.23769-.39643-.02511-.79285-.06783-1.18668-.13046Zm328.1247,43.05696c.71997-1.77114,1.61817-3.51471,2.77208-5.21311,4.29991-6.33196,10.21799-11.30927,15.9831-16.36926,5.41125-4.75406,10.69465-9.57825,14.08135-15.92277,1.4701-2.75217,2.48621-6.9818,2.14245-10.79509-.20319-2.26035-.87309-4.39025-2.40076-5.82513-4.87702-4.58594-10.91545-4.20222-16.5651-1.50532-9.16437,4.37264-17.4581,14.68097-19.21928,22.35517-1.4701,6.40974-2.72186,14.66091-.66224,21.07065,.83542,2.594,1.63057,5.1805,2.39326,7.79716,.22585,.77264,.95577,2.42343,1.23675,3.25869,.17823,.52444,.23335,.93587,.23841,1.14901Zm-317.78621-53.32012c-.04517,.00505-.11806,.01256-.16568,.02251-.18818,.04272-.38127,.1179-.58201,.21069-.59701,.28113-1.21929,.71507-1.85887,1.2343-1.41498,1.14901-2.86747,2.68189-4.15199,4.18706,.52688-.12785,1.05117-.32354,1.5805-.59456,.86298-.44405,3.12334-1.80375,4.56082-3.3792,.29353-.32109,.54939-.64969,.72257-.98333,.04762-.09539,.10029-.26092,.1179-.32125-.06783-.14546-.17563-.30593-.22325-.37622Zm16.62773-88.78341l.28097,.38127c1.49016,2.06467,2.83486,4.41796,5.12522,5.9683,10.41628,7.03937,20.31302,12.44572,32.78646,15.15258,10.23544,2.22284,19.51526,.46671,29.77337-.39137,6.7584-.56685,14.61068-.4615,21.13343-2.52877,4.167-1.31959,7.62398-3.40171,11.14114-5.23562,3.09072-1.61067,6.22156-3.0356,9.8041-3.76552-.16307-.26352-.30609-.49932-.38892-.66485-.92821-1.81631-1.73852-3.33908-3.84836-3.4847-7.62904-.52428-15.39849,2.17262-22.85679,3.18857-22.95479,3.12349-48.00426,2.0221-70.14614-5.17039-4.20712-1.36721-8.57241-2.17752-12.80448-3.44948Zm107.75418,1.14656c-1.74357-4.21477-2.91264-9.35761-4.73385-11.74091-4.7239-6.18389-12.68413-9.94191-20.06481-11.85361-22.91957-5.93569-46.79492,1.36476-67.56714,11.16626-4.71639,2.22269-9.25961,4.8418-14.03878,6.93663,4.24984,1.28452,8.63503,2.09223,12.86221,3.46709,21.50214,6.98425,45.83164,8.02286,68.12419,4.98726,7.75689-1.05362,15.85004-3.76307,23.78501-3.21873,.58706,.04012,1.12895,.12801,1.63318,.25602Zm-12.60619-70.3971c-1.47776-.59456-3.00053-1.1389-4.56848-1.63318-8.94847-2.8148-18.55689-3.77057-27.90944-3.51211-9.51547,.26076-19.47759,2.1524-28.39866,5.44632-12.20977,4.51075-24.72577,11.17391-35.57354,18.39397-2.76703,1.84387-5.08756,4.1719-7.50103,6.4197,2.11489-.80526,4.22212-1.78614,6.3119-2.8272,5.53926-2.76473,10.95556-5.98836,16.04572-7.9953,25.95027-10.22059,47.73844-18.16061,76.04921-14.55051,1.71601,.2182,3.60245,.24576,5.54431,.25831Zm43.22264-65.42974c.21575,1.83636,.40133,3.66017,.56945,5.46653,2.31808,.65474,4.6285,1.39232,6.92897,2.21258,4.43297,1.5805,9.0039,3.30402,13.24608,5.44892-1.12145-3.05305-2.36325-6.46992-2.51882-7.01181-.51923-1.8013-.98839-3.62511-1.40732-5.46653-2.76718,.24591-5.60204,.29858-8.46186,.17563-2.77713-.12035-5.57448-.40133-8.35651-.82532Zm20.42587-4.3878c4.57598-.78015,8.86073-2.21763,12.59884-4.47293,4.80168-2.89764,8.11565-9.19698,9.23205-15.71207,1.09879-6.39474,.11285-13.10062-4.18201-17.01665-1.21684-1.10889-2.66428-1.3522-4.11188-1.15651-1.78369,.23825-3.56738,1.09128-5.11022,2.06712-7.10721,4.49575-9.93456,11.76587-9.93946,20.0547-.0026,5.40375,.52933,10.87028,1.51267,16.23636Zm-25.76944-1.25681c-1.86148-11.72821-5.5267-23.33361-14.66351-31.61478-3.47199-3.146-9.48791-5.93308-14.7687-6.22171-2.74467-.15297-5.2984,.35126-6.96924,2.15256-1.11395,1.20168-1.78874,2.95031-1.96943,5.31341-.35371,4.59344,1.48021,8.55725,4.21722,11.93905,2.94265,3.64257,6.92407,6.62549,10.64948,8.99364,6.23917,3.96886,14.59813,7.40074,23.50418,9.43784Z" fill="#cca646" fill-rule="evenodd"/></g></svg>